<svg xmlns="http://www.w3.org/2000/svg" version="1.1" xmlns:xlink="http://www.w3.org/1999/xlink" xmlns:svgjs="http://svgjs.dev/svgjs" width="1500" height="1500" viewBox="0 0 1500 1500"><rect width="1500" height="1500" fill="#ffffff"></rect><g transform="matrix(0.6666666666666666,0,0,0.6666666666666666,249.46518451003544,266.3919028340081)"><svg viewBox="0 0 255 247" data-background-color="#ffffff" preserveAspectRatio="xMidYMid meet" height="1452" width="1500" xmlns="http://www.w3.org/2000/svg" xmlns:xlink="http://www.w3.org/1999/xlink"><g id="tight-bounds" transform="matrix(1,0,0,1,0.13637794994096453,-0.09999999999999432)"><svg viewBox="0 0 254.72724410011807 247.2" height="247.2" width="254.72724410011807"><g><svg viewBox="0 0 395.52 383.8323000957504" height="247.2" width="254.72724410011807"><g transform="matrix(1,0,0,1,0,256.42402313411463)"><svg viewBox="0 0 395.52 127.40827696163578" height="127.40827696163578" width="395.52"><g id="textblocktransform"><svg viewBox="0 0 395.52 127.40827696163578" height="127.40827696163578" width="395.52" id="textblock"><g><svg viewBox="0 0 395.52 79.28972367708144" height="79.28972367708144" width="395.52"><g transform="matrix(1,0,0,1,0,0)"><svg width="395.52" viewBox="5.35 -42.95 276.83 55.50000000000001" height="79.28972367708144" data-palette-color="#106a46"><path d="M10.2-4.35L26.05-4.35 26.05 0 5.35 0 5.35-37.9 10.2-37.9 10.2-4.35ZM44.5 0.85Q40.1 0.85 37.02-1.07 33.95-3 32.4-6.33 30.85-9.65 30.85-13.8L30.85-13.8Q30.85-17.95 32.4-21.28 33.95-24.6 37.02-26.53 40.1-28.45 44.5-28.45L44.5-28.45Q48.9-28.45 51.97-26.53 55.05-24.6 56.57-21.28 58.1-17.95 58.1-13.8L58.1-13.8Q58.1-9.65 56.57-6.33 55.05-3 51.97-1.07 48.9 0.85 44.5 0.85L44.5 0.85ZM44.5-3.4Q48.65-3.4 50.92-6.3 53.2-9.2 53.2-13.8L53.2-13.8Q53.2-18.4 50.92-21.28 48.65-24.15 44.5-24.15L44.5-24.15Q40.35-24.15 38.05-21.28 35.75-18.4 35.75-13.8L35.75-13.8Q35.75-9.2 38.05-6.3 40.35-3.4 44.5-3.4L44.5-3.4ZM77.09 0.85Q70.65 0.8 67.17-3.15 63.7-7.1 63.7-13.85L63.7-13.85Q63.7-20.6 67.17-24.5 70.65-28.4 77.09-28.45L77.09-28.45Q79.34-28.45 80.97-28.13 82.59-27.8 84.45-27.05L84.45-27.05 84.45-22.5Q82.65-23.35 81.02-23.7 79.4-24.05 77.45-24.05L77.45-24.05Q72.8-24 70.7-21.28 68.59-18.55 68.59-13.9L68.59-13.9Q68.59-9.15 70.7-6.35 72.8-3.55 77.34-3.5L77.34-3.5Q80.9-3.5 85.09-5.65L85.09-5.65 86.59-1.55Q82.05 0.85 77.09 0.85L77.09 0.85ZM114.64 0L100.99-17.1 98.39-14.35 98.39 0 93.54 0 93.54-37.9 98.39-37.9 98.39-20.95 114.49-37.9 120.64-37.9 104.29-20.6 120.89 0 114.64 0ZM130.24-13.45Q130.34-8.85 132.54-6.1 134.74-3.35 139.54-3.35L139.54-3.35Q143.19-3.35 147.54-5.4L147.54-5.4 148.99-1.5Q144.44 0.85 139.14 0.85L139.14 0.85Q134.74 0.85 131.64-1 128.54-2.85 126.94-6.15 125.34-9.45 125.34-13.85L125.34-13.85Q125.34-18.5 127.02-21.78 128.69-25.05 131.54-26.75 134.39-28.45 137.94-28.45L137.94-28.45Q143.39-28.45 146.49-25.05 149.59-21.65 149.59-15.3L149.59-15.3 149.59-13.45 130.24-13.45ZM137.94-24.25Q131.74-24.25 130.54-17.4L130.54-17.4 144.64-17.4Q144.39-20.9 142.74-22.58 141.09-24.25 137.94-24.25L137.94-24.25ZM173.79-27.65L178.54-27.65 166.29 4.45Q164.99 7.85 163.94 9.5 162.89 11.15 161.46 11.85 160.04 12.55 157.54 12.55L157.54 12.55Q156.09 12.55 154.59 12.15L154.59 12.15 154.59 7.9Q155.89 8.2 157.19 8.2L157.19 8.2Q158.89 8.2 159.86 7.2 160.84 6.2 161.99 3.25L161.99 3.25 163.29-0.1 152.79-27.65 157.69-27.65 165.64-6.25 173.79-27.65ZM195.64 0.85Q188.39 0.85 182.69-1.85L182.69-1.85 182.69-6.45Q188.44-3.4 195.64-3.4L195.64-3.4Q199.79-3.4 201.71-5.15 203.64-6.9 203.64-9.75L203.64-9.75Q203.64-12.45 201.86-13.8 200.09-15.15 196.64-16.15L196.64-16.15 193.24-17.1Q190.34-17.95 188.29-19.05 186.24-20.15 184.86-22.23 183.49-24.3 183.49-27.65L183.49-27.65Q183.49-33 186.61-35.8 189.74-38.6 195.49-38.6L195.49-38.6Q198.84-38.6 201.39-37.98 203.94-37.35 206.69-36.1L206.69-36.1 206.69-31.6Q201.59-34.35 195.49-34.35L195.49-34.35Q191.79-34.35 190.09-32.63 188.39-30.9 188.39-27.9L188.39-27.9Q188.44-25.15 190.06-23.85 191.69-22.55 195.14-21.55L195.14-21.55 198.59-20.6Q201.64-19.75 203.76-18.63 205.89-17.5 207.21-15.38 208.54-13.25 208.54-9.85L208.54-9.85Q208.49-4.9 205.06-2.02 201.64 0.85 195.64 0.85L195.64 0.85ZM224.68-27.65Q229.08-27.65 231.38-26.18 233.68-24.7 234.43-22.23 235.18-19.75 235.18-16L235.18-16 235.18 0 230.48 0 230.48-2.75Q228.58-0.95 226.68-0.15 224.78 0.65 222.58 0.65L222.58 0.65Q219.98 0.65 217.88-0.48 215.78-1.6 214.56-3.73 213.33-5.85 213.33-8.75L213.33-8.75Q213.33-13.25 216.13-15.73 218.93-18.2 223.68-18.2L223.68-18.2Q227.43-18.2 230.43-16.55L230.43-16.55Q230.38-19 229.93-20.45 229.48-21.9 228.08-22.68 226.68-23.45 223.93-23.45L223.93-23.45 220.23-23.45 220.23-27.65 224.68-27.65ZM223.23-3.4Q224.93-3.4 226.81-4.2 228.68-5 230.48-6.6L230.48-6.6 230.48-12.9Q227.68-14.3 224.38-14.3L224.38-14.3Q221.73-14.3 219.93-13.03 218.13-11.75 218.13-8.75L218.13-8.75Q218.13-5.95 219.66-4.67 221.18-3.4 223.23-3.4L223.23-3.4ZM251.38-38.6Q249.63-38.6 249.01-37.88 248.38-37.15 248.38-35.15L248.38-35.15 248.38-27.65 253.88-27.65 253.88-23.25 248.38-23.25 248.38 0 243.68 0 243.68-23.25 240.28-23.25 240.28-27.65 243.68-27.65 243.68-36.4Q243.68-39.95 245.33-41.45 246.98-42.95 250.73-42.95L250.73-42.95Q251.93-42.95 253.88-42.6L253.88-42.6 253.88-38.3Q252.73-38.6 251.38-38.6L251.38-38.6ZM262.83-13.45Q262.93-8.85 265.13-6.1 267.33-3.35 272.13-3.35L272.13-3.35Q275.78-3.35 280.13-5.4L280.13-5.4 281.58-1.5Q277.03 0.85 271.73 0.85L271.73 0.85Q267.33 0.85 264.23-1 261.13-2.85 259.53-6.15 257.93-9.45 257.93-13.85L257.93-13.85Q257.93-18.5 259.6-21.78 261.28-25.05 264.13-26.75 266.98-28.45 270.53-28.45L270.53-28.45Q275.98-28.45 279.08-25.05 282.18-21.65 282.18-15.3L282.18-15.3 282.18-13.45 262.83-13.45ZM270.53-24.25Q264.33-24.25 263.13-17.4L263.13-17.4 277.23-17.4Q276.98-20.9 275.33-22.58 273.68-24.25 270.53-24.25L270.53-24.25Z" opacity="1" transform="matrix(1,0,0,1,0,0)" fill="#106a46" class="wordmark-text-0" data-fill-palette-color="primary" id="text-0"></path></svg></g></svg></g><g transform="matrix(1,0,0,1,0,98.00812448387212)"><svg viewBox="0 0 395.52 29.400152477763662" height="29.400152477763662" width="395.52"><g transform="matrix(1,0,0,1,0,0)"><svg width="395.52" viewBox="1.4 -35.6 629.53 46.8" height="29.400152477763662" data-palette-color="#106a46"><path d="M15.5 0L11.3 0 11.3-29.3 1.4-29.3 1.4-32.8 25.4-32.8 25.4-29.3 15.5-29.3 15.5 0ZM35 0L30.9 0 30.9-35.6 35-35.6 35-25.9 34.85-20.9Q36.6-22.55 38.5-23.73 40.4-24.9 42.95-24.9L42.95-24.9Q46.8-24.9 48.57-22.5 50.35-20.1 50.35-15.4L50.35-15.4 50.35 0 46.25 0 46.25-14.85Q46.25-18.3 45.15-19.83 44.05-21.35 41.65-21.35L41.65-21.35Q39.75-21.35 38.3-20.4 36.85-19.45 35-17.6L35-17.6 35 0ZM67.95 0.6L67.95 0.6Q65.5 0.6 63.37-0.28 61.25-1.15 59.67-2.78 58.1-4.4 57.2-6.75 56.3-9.1 56.3-12.1L56.3-12.1Q56.3-15.1 57.22-17.48 58.15-19.85 59.67-21.5 61.2-23.15 63.15-24.03 65.09-24.9 67.2-24.9L67.2-24.9Q69.5-24.9 71.32-24.1 73.15-23.3 74.37-21.8 75.59-20.3 76.25-18.2 76.9-16.1 76.9-13.5L76.9-13.5Q76.9-12.85 76.87-12.23 76.84-11.6 76.75-11.15L76.75-11.15 60.35-11.15Q60.6-7.25 62.77-4.98 64.95-2.7 68.45-2.7L68.45-2.7Q70.2-2.7 71.67-3.23 73.15-3.75 74.5-4.6L74.5-4.6 75.95-1.9Q74.34-0.9 72.4-0.15 70.45 0.6 67.95 0.6ZM60.3-14.1L60.3-14.1 73.3-14.1Q73.3-17.8 71.72-19.73 70.15-21.65 67.3-21.65L67.3-21.65Q66-21.65 64.82-21.15 63.65-20.65 62.7-19.68 61.75-18.7 61.12-17.3 60.5-15.9 60.3-14.1ZM97.44 0L93.29 0 93.29-32.8 97.44-32.8 97.44-16.35 97.59-16.35 111.24-32.8 115.94-32.8 105.69-20.3 117.54 0 112.89 0 103.09-17.05 97.44-10.4 97.44 0ZM131.34 0.6L131.34 0.6Q128.89 0.6 126.76-0.28 124.64-1.15 123.06-2.78 121.49-4.4 120.59-6.75 119.69-9.1 119.69-12.1L119.69-12.1Q119.69-15.1 120.61-17.48 121.54-19.85 123.06-21.5 124.59-23.15 126.54-24.03 128.49-24.9 130.59-24.9L130.59-24.9Q132.89-24.9 134.71-24.1 136.54-23.3 137.76-21.8 138.99-20.3 139.64-18.2 140.29-16.1 140.29-13.5L140.29-13.5Q140.29-12.85 140.26-12.23 140.24-11.6 140.14-11.15L140.14-11.15 123.74-11.15Q123.99-7.25 126.16-4.98 128.34-2.7 131.84-2.7L131.84-2.7Q133.59-2.7 135.06-3.23 136.54-3.75 137.89-4.6L137.89-4.6 139.34-1.9Q137.74-0.9 135.79-0.15 133.84 0.6 131.34 0.6ZM123.69-14.1L123.69-14.1 136.69-14.1Q136.69-17.8 135.11-19.73 133.54-21.65 130.69-21.65L130.69-21.65Q129.39-21.65 128.21-21.15 127.04-20.65 126.09-19.68 125.14-18.7 124.51-17.3 123.89-15.9 123.69-14.1ZM146.94 10.45L146.94 10.45Q146.09 10.45 145.39 10.33 144.69 10.2 144.09 9.95L144.09 9.95 144.89 6.7Q145.29 6.8 145.79 6.93 146.29 7.05 146.74 7.05L146.74 7.05Q148.84 7.05 150.16 5.58 151.49 4.1 152.24 1.85L152.24 1.85 152.79 0.05 143.04-24.3 147.29-24.3 152.24-10.85Q152.79-9.25 153.41-7.48 154.04-5.7 154.59-4L154.59-4 154.79-4Q155.34-5.65 155.84-7.45 156.34-9.25 156.84-10.85L156.84-10.85 161.19-24.3 165.19-24.3 156.04 2Q155.39 3.8 154.59 5.35 153.79 6.9 152.69 8.03 151.59 9.15 150.19 9.8 148.79 10.45 146.94 10.45ZM187.53 0.6L187.53 0.6Q185.58 0.6 184.26 0 182.93-0.6 182.11-1.65 181.28-2.7 180.93-4.2 180.58-5.7 180.58-7.5L180.58-7.5 180.58-20.95 176.98-20.95 176.98-24.05 180.78-24.3 181.28-31.1 184.73-31.1 184.73-24.3 191.28-24.3 191.28-20.95 184.73-20.95 184.73-7.45Q184.73-5.2 185.56-3.98 186.38-2.75 188.48-2.75L188.48-2.75Q189.13-2.75 189.88-2.95 190.63-3.15 191.23-3.4L191.23-3.4 192.03-0.3Q191.03 0.05 189.86 0.33 188.68 0.6 187.53 0.6ZM205.53 0.6L205.53 0.6Q203.28 0.6 201.25-0.25 199.23-1.1 197.68-2.73 196.13-4.35 195.2-6.73 194.28-9.1 194.28-12.1L194.28-12.1Q194.28-15.15 195.2-17.53 196.13-19.9 197.68-21.55 199.23-23.2 201.25-24.05 203.28-24.9 205.53-24.9L205.53-24.9Q207.78-24.9 209.8-24.05 211.83-23.2 213.38-21.55 214.93-19.9 215.85-17.53 216.78-15.15 216.78-12.1L216.78-12.1Q216.78-9.1 215.85-6.73 214.93-4.35 213.38-2.73 211.83-1.1 209.8-0.25 207.78 0.6 205.53 0.6ZM205.53-2.8L205.53-2.8Q207.08-2.8 208.38-3.48 209.68-4.15 210.6-5.38 211.53-6.6 212.03-8.3 212.53-10 212.53-12.1L212.53-12.1Q212.53-14.2 212.03-15.93 211.53-17.65 210.6-18.9 209.68-20.15 208.38-20.83 207.08-21.5 205.53-21.5L205.53-21.5Q203.98-21.5 202.68-20.83 201.38-20.15 200.45-18.9 199.53-17.65 199.03-15.93 198.53-14.2 198.53-12.1L198.53-12.1Q198.53-10 199.03-8.3 199.53-6.6 200.45-5.38 201.38-4.15 202.68-3.48 203.98-2.8 205.53-2.8ZM243.07 0L238.87 0 238.87-12.7 229.02-32.8 233.47-32.8 237.72-23.55Q238.52-21.75 239.27-20 240.02-18.25 240.87-16.4L240.87-16.4 241.07-16.4Q241.92-18.25 242.77-20 243.62-21.75 244.37-23.55L244.37-23.55 248.57-32.8 252.92-32.8 243.07-12.7 243.07 0ZM264.37 0.6L264.37 0.6Q262.12 0.6 260.1-0.25 258.07-1.1 256.52-2.73 254.97-4.35 254.05-6.73 253.12-9.1 253.12-12.1L253.12-12.1Q253.12-15.15 254.05-17.53 254.97-19.9 256.52-21.55 258.07-23.2 260.1-24.05 262.12-24.9 264.37-24.9L264.37-24.9Q266.62-24.9 268.65-24.05 270.67-23.2 272.22-21.55 273.77-19.9 274.7-17.53 275.62-15.15 275.62-12.1L275.62-12.1Q275.62-9.1 274.7-6.73 273.77-4.35 272.22-2.73 270.67-1.1 268.65-0.25 266.62 0.6 264.37 0.6ZM264.37-2.8L264.37-2.8Q265.92-2.8 267.22-3.48 268.52-4.15 269.45-5.38 270.37-6.6 270.87-8.3 271.37-10 271.37-12.1L271.37-12.1Q271.37-14.2 270.87-15.93 270.37-17.65 269.45-18.9 268.52-20.15 267.22-20.83 265.92-21.5 264.37-21.5L264.37-21.5Q262.82-21.5 261.52-20.83 260.22-20.15 259.3-18.9 258.37-17.65 257.87-15.93 257.37-14.2 257.37-12.1L257.37-12.1Q257.37-10 257.87-8.3 258.37-6.6 259.3-5.38 260.22-4.15 261.52-3.48 262.82-2.8 264.37-2.8ZM289.12 0.6L289.12 0.6Q285.22 0.6 283.44-1.8 281.67-4.2 281.67-8.9L281.67-8.9 281.67-24.3 285.82-24.3 285.82-9.45Q285.82-6 286.89-4.48 287.97-2.95 290.37-2.95L290.37-2.95Q292.27-2.95 293.72-3.93 295.17-4.9 296.92-7.05L296.92-7.05 296.92-24.3 301.02-24.3 301.02 0 297.62 0 297.27-3.8 297.12-3.8Q295.42-1.8 293.54-0.6 291.67 0.6 289.12 0.6ZM313.32 0L309.22 0 309.22-24.3 312.62-24.3 312.97-19.9 313.12-19.9Q314.37-22.2 316.14-23.55 317.92-24.9 320.02-24.9L320.02-24.9Q321.47-24.9 322.62-24.4L322.62-24.4 321.82-20.8Q321.22-21 320.72-21.1 320.22-21.2 319.47-21.2L319.47-21.2Q317.92-21.2 316.24-19.95 314.57-18.7 313.32-15.6L313.32-15.6 313.32 0ZM346.06 0.6L346.06 0.6Q342.61 0.6 339.66-0.7 336.71-2 334.56-4.25L334.56-4.25 337.06-7.15Q338.81-5.3 341.19-4.17 343.56-3.05 346.11-3.05L346.11-3.05Q349.36-3.05 351.16-4.53 352.96-6 352.96-8.4L352.96-8.4Q352.96-9.65 352.54-10.53 352.11-11.4 351.39-12.03 350.66-12.65 349.66-13.15 348.66-13.65 347.51-14.2L347.51-14.2 342.81-16.25Q341.66-16.75 340.46-17.45 339.26-18.15 338.31-19.15 337.36-20.15 336.76-21.53 336.16-22.9 336.16-24.7L336.16-24.7Q336.16-26.55 336.94-28.15 337.71-29.75 339.09-30.93 340.46-32.1 342.34-32.75 344.21-33.4 346.46-33.4L346.46-33.4Q349.41-33.4 351.91-32.27 354.41-31.15 356.16-29.35L356.16-29.35 353.91-26.65Q352.41-28.1 350.59-28.93 348.76-29.75 346.46-29.75L346.46-29.75Q343.71-29.75 342.04-28.48 340.36-27.2 340.36-24.95L340.36-24.95Q340.36-23.75 340.84-22.93 341.31-22.1 342.11-21.48 342.91-20.85 343.86-20.38 344.81-19.9 345.81-19.5L345.81-19.5 350.46-17.5Q351.86-16.9 353.11-16.13 354.36-15.35 355.26-14.33 356.16-13.3 356.69-11.93 357.21-10.55 357.21-8.75L357.21-8.75Q357.21-6.8 356.44-5.1 355.66-3.4 354.21-2.13 352.76-0.85 350.71-0.13 348.66 0.6 346.06 0.6ZM369.71 0.6L369.71 0.6Q367.76 0.6 366.43 0 365.11-0.6 364.28-1.65 363.46-2.7 363.11-4.2 362.76-5.7 362.76-7.5L362.76-7.5 362.76-20.95 359.16-20.95 359.16-24.05 362.96-24.3 363.46-31.1 366.91-31.1 366.91-24.3 373.46-24.3 373.46-20.95 366.91-20.95 366.91-7.45Q366.91-5.2 367.73-3.98 368.56-2.75 370.66-2.75L370.66-2.75Q371.31-2.75 372.06-2.95 372.81-3.15 373.41-3.4L373.41-3.4 374.21-0.3Q373.21 0.05 372.03 0.33 370.86 0.6 369.71 0.6ZM387.71 0.6L387.71 0.6Q385.46 0.6 383.43-0.25 381.41-1.1 379.86-2.73 378.31-4.35 377.38-6.73 376.46-9.1 376.46-12.1L376.46-12.1Q376.46-15.15 377.38-17.53 378.31-19.9 379.86-21.55 381.41-23.2 383.43-24.05 385.46-24.9 387.71-24.9L387.71-24.9Q389.96-24.9 391.98-24.05 394.01-23.2 395.56-21.55 397.11-19.9 398.03-17.53 398.96-15.15 398.96-12.1L398.96-12.1Q398.96-9.1 398.03-6.73 397.11-4.35 395.56-2.73 394.01-1.1 391.98-0.25 389.96 0.6 387.71 0.6ZM387.71-2.8L387.71-2.8Q389.26-2.8 390.56-3.48 391.86-4.15 392.78-5.38 393.71-6.6 394.21-8.3 394.71-10 394.71-12.1L394.71-12.1Q394.71-14.2 394.21-15.93 393.71-17.65 392.78-18.9 391.86-20.15 390.56-20.83 389.26-21.5 387.71-21.5L387.71-21.5Q386.16-21.5 384.86-20.83 383.56-20.15 382.63-18.9 381.71-17.65 381.21-15.93 380.71-14.2 380.71-12.1L380.71-12.1Q380.71-10 381.21-8.3 381.71-6.6 382.63-5.38 383.56-4.15 384.86-3.48 386.16-2.8 387.71-2.8ZM409.45 0L405.35 0 405.35-24.3 408.75-24.3 409.1-19.9 409.25-19.9Q410.5-22.2 412.28-23.55 414.05-24.9 416.15-24.9L416.15-24.9Q417.6-24.9 418.75-24.4L418.75-24.4 417.95-20.8Q417.35-21 416.85-21.1 416.35-21.2 415.6-21.2L415.6-21.2Q414.05-21.2 412.38-19.95 410.7-18.7 409.45-15.6L409.45-15.6 409.45 0ZM427.1 0.6L427.1 0.6Q424.05 0.6 422.03-1.2 420-3 420-6.3L420-6.3Q420-10.3 423.55-12.43 427.1-14.55 434.9-15.4L434.9-15.4Q434.9-16.55 434.68-17.65 434.45-18.75 433.9-19.6 433.35-20.45 432.38-20.98 431.4-21.5 429.9-21.5L429.9-21.5Q427.8-21.5 425.95-20.7 424.1-19.9 422.65-18.9L422.65-18.9 421.05-21.75Q422.75-22.85 425.2-23.88 427.65-24.9 430.6-24.9L430.6-24.9Q435.05-24.9 437.05-22.18 439.05-19.45 439.05-14.9L439.05-14.9 439.05 0 435.65 0 435.3-2.9 435.15-2.9Q433.4-1.45 431.4-0.43 429.4 0.6 427.1 0.6ZM428.3-2.7L428.3-2.7Q430.05-2.7 431.6-3.53 433.15-4.35 434.9-5.95L434.9-5.95 434.9-12.7Q431.85-12.3 429.78-11.75 427.7-11.2 426.43-10.45 425.15-9.7 424.58-8.72 424-7.75 424-6.6L424-6.6Q424-4.5 425.25-3.6 426.5-2.7 428.3-2.7ZM454.9 11.2L454.9 11.2Q452.65 11.2 450.8 10.78 448.95 10.35 447.62 9.5 446.3 8.65 445.57 7.45 444.85 6.25 444.85 4.65L444.85 4.65Q444.85 3.1 445.8 1.7 446.75 0.3 448.4-0.85L448.4-0.85 448.4-1.05Q447.5-1.6 446.87-2.58 446.25-3.55 446.25-5L446.25-5Q446.25-6.55 447.1-7.7 447.95-8.85 448.9-9.5L448.9-9.5 448.9-9.7Q447.7-10.7 446.72-12.38 445.75-14.05 445.75-16.25L445.75-16.25Q445.75-18.25 446.47-19.85 447.2-21.45 448.45-22.58 449.7-23.7 451.37-24.3 453.05-24.9 454.9-24.9L454.9-24.9Q455.9-24.9 456.77-24.73 457.65-24.55 458.35-24.3L458.35-24.3 466.8-24.3 466.8-21.15 461.8-21.15Q462.65-20.3 463.22-19 463.8-17.7 463.8-16.15L463.8-16.15Q463.8-14.2 463.1-12.63 462.4-11.05 461.2-9.98 460-8.9 458.37-8.3 456.75-7.7 454.9-7.7L454.9-7.7Q454-7.7 453.05-7.93 452.1-8.15 451.25-8.55L451.25-8.55Q450.6-8 450.15-7.33 449.7-6.65 449.7-5.65L449.7-5.65Q449.7-4.5 450.6-3.75 451.5-3 454-3L454-3 458.7-3Q462.95-3 465.07-1.63 467.2-0.25 467.2 2.8L467.2 2.8Q467.2 4.5 466.35 6.03 465.5 7.55 463.9 8.7 462.3 9.85 460.02 10.53 457.75 11.2 454.9 11.2ZM454.9-10.45L454.9-10.45Q455.95-10.45 456.87-10.85 457.8-11.25 458.52-12 459.25-12.75 459.65-13.83 460.05-14.9 460.05-16.25L460.05-16.25Q460.05-18.95 458.55-20.43 457.05-21.9 454.9-21.9L454.9-21.9Q452.75-21.9 451.25-20.43 449.75-18.95 449.75-16.25L449.75-16.25Q449.75-14.9 450.15-13.83 450.55-12.75 451.27-12 452-11.25 452.92-10.85 453.85-10.45 454.9-10.45ZM455.5 8.35L455.5 8.35Q457.25 8.35 458.67 7.93 460.1 7.5 461.1 6.83 462.1 6.15 462.65 5.25 463.2 4.35 463.2 3.4L463.2 3.4Q463.2 1.7 461.95 1.05 460.7 0.4 458.3 0.4L458.3 0.4 454.1 0.4Q453.4 0.4 452.57 0.33 451.75 0.25 450.95 0L450.95 0Q449.65 0.95 449.05 2 448.45 3.05 448.45 4.1L448.45 4.1Q448.45 6.05 450.32 7.2 452.2 8.35 455.5 8.35ZM481.05 0.6L481.05 0.6Q478.6 0.6 476.47-0.28 474.35-1.15 472.77-2.78 471.2-4.4 470.3-6.75 469.4-9.1 469.4-12.1L469.4-12.1Q469.4-15.1 470.32-17.48 471.25-19.85 472.77-21.5 474.3-23.15 476.25-24.03 478.2-24.9 480.3-24.9L480.3-24.9Q482.6-24.9 484.42-24.1 486.25-23.3 487.47-21.8 488.7-20.3 489.35-18.2 490-16.1 490-13.5L490-13.5Q490-12.85 489.97-12.23 489.95-11.6 489.85-11.15L489.85-11.15 473.45-11.15Q473.7-7.25 475.87-4.98 478.05-2.7 481.55-2.7L481.55-2.7Q483.3-2.7 484.77-3.23 486.25-3.75 487.6-4.6L487.6-4.6 489.05-1.9Q487.45-0.9 485.5-0.15 483.55 0.6 481.05 0.6ZM473.4-14.1L473.4-14.1 486.4-14.1Q486.4-17.8 484.82-19.73 483.25-21.65 480.4-21.65L480.4-21.65Q479.1-21.65 477.92-21.15 476.75-20.65 475.8-19.68 474.85-18.7 474.22-17.3 473.6-15.9 473.4-14.1ZM510.34 0L506.39 0 506.39-32.8 510.69-32.8 522.54-12.2 526.09-5.4 526.29-5.4Q526.14-7.9 525.97-10.58 525.79-13.25 525.79-15.85L525.79-15.85 525.79-32.8 529.74-32.8 529.74 0 525.44 0 513.54-20.65 509.99-27.4 509.79-27.4Q509.99-24.9 510.17-22.33 510.34-19.75 510.34-17.15L510.34-17.15 510.34 0ZM548.19 0.6L548.19 0.6Q545.74 0.6 543.61-0.28 541.49-1.15 539.91-2.78 538.34-4.4 537.44-6.75 536.54-9.1 536.54-12.1L536.54-12.1Q536.54-15.1 537.46-17.48 538.39-19.85 539.91-21.5 541.44-23.15 543.39-24.03 545.34-24.9 547.44-24.9L547.44-24.9Q549.74-24.9 551.56-24.1 553.39-23.3 554.61-21.8 555.84-20.3 556.49-18.2 557.14-16.1 557.14-13.5L557.14-13.5Q557.14-12.85 557.11-12.23 557.09-11.6 556.99-11.15L556.99-11.15 540.59-11.15Q540.84-7.25 543.01-4.98 545.19-2.7 548.69-2.7L548.69-2.7Q550.44-2.7 551.91-3.23 553.39-3.75 554.74-4.6L554.74-4.6 556.19-1.9Q554.59-0.9 552.64-0.15 550.69 0.6 548.19 0.6ZM540.54-14.1L540.54-14.1 553.54-14.1Q553.54-17.8 551.96-19.73 550.39-21.65 547.54-21.65L547.54-21.65Q546.24-21.65 545.06-21.15 543.89-20.65 542.94-19.68 541.99-18.7 541.36-17.3 540.74-15.9 540.54-14.1ZM572.99 0.6L572.99 0.6Q570.53 0.6 568.41-0.28 566.28-1.15 564.71-2.78 563.13-4.4 562.24-6.75 561.33-9.1 561.33-12.1L561.33-12.1Q561.33-15.1 562.26-17.48 563.18-19.85 564.71-21.5 566.24-23.15 568.18-24.03 570.13-24.9 572.24-24.9L572.24-24.9Q574.53-24.9 576.36-24.1 578.18-23.3 579.41-21.8 580.63-20.3 581.28-18.2 581.93-16.1 581.93-13.5L581.93-13.5Q581.93-12.85 581.91-12.23 581.88-11.6 581.78-11.15L581.78-11.15 565.38-11.15Q565.63-7.25 567.81-4.98 569.99-2.7 573.49-2.7L573.49-2.7Q575.24-2.7 576.71-3.23 578.18-3.75 579.53-4.6L579.53-4.6 580.99-1.9Q579.38-0.9 577.43-0.15 575.49 0.6 572.99 0.6ZM565.33-14.1L565.33-14.1 578.33-14.1Q578.33-17.8 576.76-19.73 575.18-21.65 572.33-21.65L572.33-21.65Q571.03-21.65 569.86-21.15 568.68-20.65 567.74-19.68 566.78-18.7 566.16-17.3 565.53-15.9 565.33-14.1ZM596.23 0.6L596.23 0.6Q591.63 0.6 588.91-2.7 586.18-6 586.18-12.1L586.18-12.1Q586.18-15.05 587.06-17.43 587.93-19.8 589.38-21.45 590.83-23.1 592.73-24 594.63-24.9 596.73-24.9L596.73-24.9Q598.83-24.9 600.38-24.15 601.93-23.4 603.53-22.1L603.53-22.1 603.33-26.25 603.33-35.6 607.48-35.6 607.48 0 604.08 0 603.73-2.85 603.58-2.85Q602.13-1.45 600.26-0.43 598.38 0.6 596.23 0.6ZM597.13-2.85L597.13-2.85Q598.83-2.85 600.33-3.68 601.83-4.5 603.33-6.2L603.33-6.2 603.33-18.9Q601.78-20.3 600.36-20.88 598.93-21.45 597.43-21.45L597.43-21.45Q595.98-21.45 594.71-20.78 593.43-20.1 592.48-18.88 591.53-17.65 590.98-15.95 590.43-14.25 590.43-12.15L590.43-12.15Q590.43-7.75 592.18-5.3 593.93-2.85 597.13-2.85ZM622.03 0.6L622.03 0.6Q619.43 0.6 617.08-0.35 614.73-1.3 612.98-2.75L612.98-2.75 615.03-5.5Q616.63-4.2 618.3-3.4 619.98-2.6 622.18-2.6L622.18-2.6Q624.58-2.6 625.78-3.7 626.98-4.8 626.98-6.4L626.98-6.4Q626.98-7.35 626.48-8.05 625.98-8.75 625.2-9.28 624.43-9.8 623.43-10.2 622.43-10.6 621.43-11L621.43-11Q620.13-11.45 618.83-12.03 617.53-12.6 616.5-13.43 615.48-14.25 614.83-15.35 614.18-16.45 614.18-18L614.18-18Q614.18-19.45 614.75-20.73 615.33-22 616.4-22.93 617.48-23.85 619.03-24.38 620.58-24.9 622.53-24.9L622.53-24.9Q624.83-24.9 626.75-24.1 628.68-23.3 630.08-22.15L630.08-22.15 628.13-19.55Q626.88-20.5 625.53-21.1 624.18-21.7 622.58-21.7L622.58-21.7Q620.28-21.7 619.2-20.65 618.13-19.6 618.13-18.2L618.13-18.2Q618.13-17.35 618.58-16.73 619.03-16.1 619.78-15.63 620.53-15.15 621.5-14.78 622.48-14.4 623.53-14L623.53-14Q624.83-13.5 626.15-12.95 627.48-12.4 628.53-11.58 629.58-10.75 630.25-9.55 630.93-8.35 630.93-6.65L630.93-6.65Q630.93-5.15 630.35-3.85 629.78-2.55 628.65-1.55 627.53-0.55 625.85 0.03 624.18 0.6 622.03 0.6Z" opacity="1" transform="matrix(1,0,0,1,0,0)" fill="#106a46" class="slogan-text-1" data-fill-palette-color="secondary" id="text-1"></path></svg></g></svg></g></svg></g></svg></g><g transform="matrix(1,0,0,1,104.44013346808376,0)"><svg viewBox="0 0 186.63973306383247 237.70562232732394" height="237.70562232732394" width="186.63973306383247"><g><svg xmlns="http://www.w3.org/2000/svg" xmlns:xlink="http://www.w3.org/1999/xlink" version="1.1" x="0" y="0" viewBox="10.844 1.032202995274986 76.82000000000002 97.8384699089757" enable-background="new 0 0 100 100" xml:space="preserve" height="237.70562232732394" width="186.63973306383247" class="icon-icon-0" data-fill-palette-color="accent" id="icon-0"><g fill="#a6bb05" data-fill-palette-color="accent"><path fill="#a6bb05" d="M15.395 28.561c0.473 0.25 0.826 0.735 0.826 1.455v8.309c0 0.719-0.354 1.204-0.826 1.453v19.397c0.473 0.25 0.826 0.732 0.826 1.453v8.307c0 0.721-0.354 1.205-0.826 1.453v0.717c0 1.492 1.275 3.359 2.863 4.033l26.397 11.156c1.433 0.602 2.221-0.035 2.221-1.184v-43.83c0-1.494-1.274-3.361-2.864-4.032L17.615 26.092c-1.432-0.605-2.221 0.035-2.221 1.184V28.561L15.395 28.561zM21.998 83.244l-4.674 1.975c-0.11 0.045-0.215 0.062-0.305 0.055-0.092 0.008-0.195-0.01-0.305-0.055L11.51 83.02c-0.265-0.111-0.492-0.361-0.599-0.629-0.044-0.07-0.067-0.158-0.067-0.262v-8.643l0.006-0.129V20.646c0-0.598 0.127-1.112 0.355-1.529 0.643-1.718 2.092-3.339 3.778-4.051L47.359 1.387c0.761-0.321 1.473-0.417 2.084-0.317 0.521-0.017 1.1 0.095 1.709 0.353l32.375 13.679c1.662 0.702 3.094 2.287 3.752 3.978 0.24 0.423 0.373 0.95 0.373 1.566v0.099l0.008 0.235v52.471l0.004 8.709c0 0.145-0.021 0.227-0.057 0.293-0.104 0.275-0.336 0.537-0.607 0.652l-5.207 2.199c-0.111 0.047-0.211 0.064-0.305 0.055-0.09 0.01-0.193-0.008-0.303-0.055l-4.779-2.018-20.83 8.797-0.002 3.586c0 0.143-0.02 0.225-0.055 0.293-0.104 0.277-0.338 0.537-0.607 0.654l-5.205 2.197c-0.111 0.047-0.213 0.064-0.305 0.055-0.092 0.01-0.195-0.008-0.305-0.055l-5.205-2.197c-0.264-0.113-0.492-0.363-0.6-0.631-0.043-0.07-0.066-0.156-0.066-0.264v-3.51L21.998 83.244 21.998 83.244zM19.156 55.303c0.5 2.16 2.178 3.576 3.748 3.164 1.57-0.41 2.438-2.496 1.938-4.656s-2.178-3.578-3.746-3.166C19.523 51.057 18.656 53.143 19.156 55.303L19.156 55.303zM20.93 48.917c0.694-1.844 1.977-3.221 3.652-3.661 3.196-0.838 6.609 2.046 7.625 6.444 1.017 4.398-0.75 8.641-3.944 9.479-1.53 0.4-3.109-0.049-4.45-1.113-0.152 0.068-0.31 0.123-0.473 0.166-2.261 0.592-4.678-1.449-5.398-4.561-0.719-3.111 0.531-6.116 2.793-6.708L20.93 48.917 20.93 48.917zM34.339 65.76v-7.832c0-2.084 1.165-4.203 2.832-5.584 0.009-1.666 0.815-3.08 2.079-3.411 1.571-0.412 3.248 1.006 3.748 3.167 0.5 2.16-0.368 4.246-1.938 4.66-0.684 0.178-1.387 0.012-2.006-0.412-0.365 0.531-0.584 1.115-0.584 1.58v7.832C38.471 68.512 34.339 68.512 34.339 65.76L34.339 65.76z" data-fill-palette-color="accent"></path></g></svg></g></svg></g><g></g></svg></g><defs></defs></svg><rect width="254.72724410011807" height="247.2" fill="none" stroke="none" visibility="hidden"></rect></g></svg></g></svg>